<svg xmlns="http://www.w3.org/2000/svg" xmlns:xlink="http://www.w3.org/1999/xlink" width="76" height="76" viewBox="0 0 76 76">
  <defs>
    <clipPath id="clip-path">
      <rect id="Rectangle_8312" data-name="Rectangle 8312" width="29.52" height="40.953" transform="translate(0 0)" fill="none"/>
    </clipPath>
  </defs>
  <g id="ic" transform="translate(-1008 -3090)">
    <path id="area" d="M0,0H76V76H0Z" transform="translate(1008 3090)" fill="red" opacity="0"/>
    <g id="Group_24468" data-name="Group 24468" transform="translate(1031.519 3106.906)">
      <g id="Group_24467" data-name="Group 24467" clip-path="url(#clip-path)">
        <path id="Path_12934" data-name="Path 12934" d="M27.585,11.3H1.946A1.907,1.907,0,0,0,1.9,15.116V36.553a4.4,4.4,0,0,0,4.371,4.4h16.99a4.4,4.4,0,0,0,4.371-4.4V15.116h.005a1.907,1.907,0,0,0-.049-3.812M8.949,35.36A1.412,1.412,0,0,1,7.7,36.884,1.413,1.413,0,0,1,6.448,35.36V18.211A1.413,1.413,0,0,1,7.7,16.687a1.412,1.412,0,0,1,1.25,1.524Zm7.064,0a1.412,1.412,0,0,1-1.25,1.524,1.413,1.413,0,0,1-1.251-1.524V18.211a1.413,1.413,0,0,1,1.251-1.524,1.412,1.412,0,0,1,1.25,1.524Zm7.063,0a1.412,1.412,0,0,1-1.25,1.524,1.413,1.413,0,0,1-1.251-1.524V18.211a1.413,1.413,0,0,1,1.251-1.524,1.412,1.412,0,0,1,1.25,1.524Z" fill="#fff"/>
        <path id="Path_12935" data-name="Path 12935" d="M25.314,4.632H19.157c.006-.076.006-.154.006-.232a4.4,4.4,0,1,0-8.8,0c0,.078.006.155.006.232H4.207A4.233,4.233,0,0,0,0,8.866a.567.567,0,0,0,.56.564h28.4a.57.57,0,0,0,.56-.564,4.234,4.234,0,0,0-4.206-4.234m-8.283,0H12.5a2.253,2.253,0,0,1-.012-.232c0-.032,0-.063,0-.1a2.279,2.279,0,0,1,4.557.1c0,.078,0,.155-.011.232" fill="#fff"/>
      </g>
    </g>
  </g>
</svg>
