<svg xmlns="http://www.w3.org/2000/svg" width="48" height="48" viewBox="0 0 48 48">
  <g id="ic_menu_home" transform="translate(-1259 -429)">
    <g id="area">
      <rect id="areaOut" width="48" height="48" transform="translate(1259 429)" fill="red" opacity="0"/>
    </g>
    <g id="Rounded_Rectangle_86" data-name="Rounded Rectangle 86" fill="none">
      <path d="M1279,472h-9a5.006,5.006,0,0,1-5-5V448l18.063-15L1301,448v19a5.006,5.006,0,0,1-5,5h-9V461h-8v11Z" stroke="none"/>
      <path d="M 1275.999877929688 468.9993896484375 L 1275.999877929688 457.9998168945312 L 1290 457.9998168945312 L 1290 468.9987182617188 L 1295.998291015625 468.9987182617188 C 1297.101318359375 468.9987182617188 1297.998657226562 468.1013488769531 1297.998657226562 466.9983215332031 L 1297.998657226562 449.4003601074219 L 1283.054931640625 436.9032592773438 L 1267.998657226562 449.4066467285156 L 1267.998657226562 466.9983215332031 C 1267.998657226562 468.1013488769531 1268.895629882812 468.9987182617188 1269.99853515625 468.9987182617188 L 1275.999877929688 468.9993896484375 M 1278.999877929688 471.9997253417969 L 1269.998168945312 471.9987182617188 C 1267.241455078125 471.9987182617188 1264.998657226562 469.7555541992188 1264.998657226562 466.9983215332031 L 1264.998657226562 447.9984130859375 L 1283.061645507812 432.9981079101562 L 1300.998657226562 447.9984130859375 L 1300.998657226562 466.9983215332031 C 1300.998657226562 469.7555541992188 1298.755493164062 471.9987182617188 1295.998291015625 471.9987182617188 L 1287 471.9987182617188 L 1287 460.9998168945312 L 1278.999877929688 460.9998168945312 L 1278.999877929688 471.9997253417969 Z" stroke="none" fill="#111"/>
    </g>
  </g>
</svg>
