<svg id="Group_24499" data-name="Group 24499" xmlns="http://www.w3.org/2000/svg" width="40" height="40" viewBox="0 0 40 40">
  <rect id="Rectangle_8325" data-name="Rectangle 8325" width="40" height="40" rx="16" fill="#fff" opacity="0"/>
  <path id="question_mark_FILL0_wght400_GRAD0_opsz48" d="M297.525-833.961a3.09,3.09,0,0,0-.976-2.4,3.686,3.686,0,0,0-2.585-.89,3.7,3.7,0,0,0-1.8.438,4.033,4.033,0,0,0-1.387,1.279,1.458,1.458,0,0,1-.921.625,1.585,1.585,0,0,1-1.109-.156,1.388,1.388,0,0,1-.718-.843,1.4,1.4,0,0,1,.25-1.093,6.415,6.415,0,0,1,2.424-2.217,6.906,6.906,0,0,1,3.26-.781,6.707,6.707,0,0,1,4.716,1.631,5.522,5.522,0,0,1,1.78,4.271,5.732,5.732,0,0,1-.625,2.655,10.611,10.611,0,0,1-2.061,2.623,10.211,10.211,0,0,0-1.562,1.74,3.812,3.812,0,0,0-.531,1.477,1.8,1.8,0,0,1-.562,1.093,1.544,1.544,0,0,1-1.087.437,1.487,1.487,0,0,1-1.062-.422,1.317,1.317,0,0,1-.444-.984,4.153,4.153,0,0,1,.562-2.061,8.659,8.659,0,0,1,1.729-2.068,11.332,11.332,0,0,0,2.1-2.335A3.843,3.843,0,0,0,297.525-833.961Zm-3.563,17.7a2.1,2.1,0,0,1-1.543-.643,2.112,2.112,0,0,1-.64-1.546,2.1,2.1,0,0,1,.643-1.543,2.112,2.112,0,0,1,1.546-.64,2.1,2.1,0,0,1,1.543.643,2.112,2.112,0,0,1,.64,1.546,2.1,2.1,0,0,1-.643,1.543A2.112,2.112,0,0,1,293.962-816.265Z" transform="translate(-274.231 848.132)" fill="#858c94"/>
</svg>
