<svg xmlns="http://www.w3.org/2000/svg" width="76" height="76" viewBox="0 0 76 76">
  <g id="ic" transform="translate(-1008 -3300)">
    <path id="area" d="M0,0H76V76H0Z" transform="translate(1008 3300)" fill="red" opacity="0"/>
    <g id="ic-2" data-name="ic">
      <path id="Subtraction_2" data-name="Subtraction 2" d="M-4031.837-4688.069a3.113,3.113,0,0,1-1.842-.6l-12.545-9.126a11.99,11.99,0,0,1-4.775-9.732v-15.024a3.031,3.031,0,0,1,1.769-2.732l16.075-7.43a3.167,3.167,0,0,1,1.318-.289,3.157,3.157,0,0,1,1.319.291l16.075,7.429a3.031,3.031,0,0,1,1.769,2.732v15.024a11.989,11.989,0,0,1-4.775,9.732l-12.545,9.126A3.108,3.108,0,0,1-4031.837-4688.069Zm2.473-23.648h6.188v3.756h1.513a.681.681,0,0,0,.651-.707v-7.587a.681.681,0,0,0-.651-.707h-1.513v3.49h-6.187v-3.49h-1.511a.682.682,0,0,0-.652.707v7.587a.682.682,0,0,0,.652.707h1.511v-3.755Zm-12.483-2.91,0,0,4.72,5.207a3.446,3.446,0,0,0,2.581,1.458h1.271v-8.293a.681.681,0,0,0-.651-.707h-1.513v6.631l-4.764-5.244-.05-.053a3.031,3.031,0,0,0-2.436-1.334h-1.326v8.293a.681.681,0,0,0,.651.707h1.514v-6.666Z" transform="translate(5078.013 8048.961)" fill="#fff" stroke="rgba(0,0,0,0)" stroke-width="1"/>
    </g>
  </g>
</svg>
