<svg id="ic_120" xmlns="http://www.w3.org/2000/svg" width="120" height="120" viewBox="0 0 120 120">
  <path id="area" d="M0,0H120V120H0Z" fill="rgba(255,0,0,0)" opacity="0"/>
  <g id="Group_24599" data-name="Group 24599" transform="translate(36 33.999)">
    <path id="quick_reference_FILL0_wght400_GRAD0_opsz48" d="M123.9-876.1v0Zm8.385,26h8.97a17.557,17.557,0,0,1,1.722-2.08,18.291,18.291,0,0,1,2.048-1.82h-12.74a1.882,1.882,0,0,0-1.389.564,1.9,1.9,0,0,0-.561,1.4,1.866,1.866,0,0,0,.561,1.386A1.9,1.9,0,0,0,132.285-850.1Zm0,11.05h6.045a11.76,11.76,0,0,1-.1-1.95q.032-.975.163-1.95h-6.11a1.882,1.882,0,0,0-1.389.564,1.9,1.9,0,0,0-.561,1.4,1.866,1.866,0,0,0,.561,1.386A1.9,1.9,0,0,0,132.285-839.05ZM123.9-828a3.742,3.742,0,0,1-2.73-1.17A3.742,3.742,0,0,1,120-831.9v-44.2a3.741,3.741,0,0,1,1.17-2.73A3.742,3.742,0,0,1,123.9-880h21.84a3.768,3.768,0,0,1,1.542.325,4.1,4.1,0,0,1,1.253.845l11.895,11.895a4.1,4.1,0,0,1,.845,1.253,3.763,3.763,0,0,1,.325,1.542v8.45a11.769,11.769,0,0,0-1.885-.747,19.507,19.507,0,0,0-2.015-.487v-7.085H147.365a1.887,1.887,0,0,1-1.389-.561,1.887,1.887,0,0,1-.561-1.389V-876.1H123.9v44.2h16.9a18.582,18.582,0,0,0,1.56,2.08,18.016,18.016,0,0,0,1.82,1.82Zm30.875-25.285A12.153,12.153,0,0,1,163.7-849.6a12.154,12.154,0,0,1,3.688,8.922,12.154,12.154,0,0,1-3.688,8.922,12.154,12.154,0,0,1-8.922,3.688,12.154,12.154,0,0,1-8.922-3.688,12.154,12.154,0,0,1-3.688-8.922,12.154,12.154,0,0,1,3.688-8.922A12.153,12.153,0,0,1,154.775-853.285Z" transform="translate(-120 880)" fill="#858c94"/>
    <line id="Line_40" data-name="Line 40" x2="8.017" y2="8.017" transform="translate(30.783 35.586)" fill="none" stroke="#fff" stroke-linecap="round" stroke-width="3"/>
    <line id="Line_41" data-name="Line 41" x1="8.017" y2="8.017" transform="translate(30.783 35.586)" fill="none" stroke="#fff" stroke-linecap="round" stroke-width="3"/>
  </g>
</svg>
