<svg xmlns="http://www.w3.org/2000/svg" xmlns:xlink="http://www.w3.org/1999/xlink" width="20" height="24" viewBox="0 0 20 24">
  <defs>
    <clipPath id="clip-path">
      <rect id="Rectangle_6735" data-name="Rectangle 6735" width="20" height="24" fill="none"/>
    </clipPath>
  </defs>
  <g id="icon" transform="translate(-67 -134)">
    <g id="ic_notification">
      <g id="ic_notification-2" data-name="ic_notification" transform="translate(67 134)">
        <g id="Group_19437" data-name="Group 19437">
          <g id="Group_19436" data-name="Group 19436" clip-path="url(#clip-path)">
            <path id="Path_10361" data-name="Path 10361" d="M0,20.4V18.6H2.625V9.42A7.054,7.054,0,0,1,4.172,4.932,6.709,6.709,0,0,1,8.25,2.46V1.59A1.457,1.457,0,0,1,8.758.45,1.8,1.8,0,0,1,9.993,0a1.823,1.823,0,0,1,1.242.45,1.447,1.447,0,0,1,.516,1.14v.87a6.775,6.775,0,0,1,4.094,2.472A7.009,7.009,0,0,1,17.406,9.42V18.6H20v1.8ZM10,24a2.475,2.475,0,0,1-1.75-.7A2.244,2.244,0,0,1,7.5,21.6h5a2.266,2.266,0,0,1-.734,1.695A2.459,2.459,0,0,1,10,24M4.5,18.6H15.531V9.42a5.094,5.094,0,0,0-1.594-3.78,5.371,5.371,0,0,0-3.906-1.56A5.424,5.424,0,0,0,6.109,5.64,5.069,5.069,0,0,0,4.5,9.42Z" fill="#666"/>
          </g>
        </g>
      </g>
    </g>
  </g>
</svg>
