<svg id="ico" xmlns="http://www.w3.org/2000/svg" width="60" height="60" viewBox="0 0 60 60">
  <path id="area" d="M0,0H60V60H0Z" fill="rgba(255,0,0,0)" opacity="0"/>
  <path id="모양_835" data-name="모양 835" d="M2056.24,1213H2075.9l-16.985,21.617h10.323" transform="translate(-2038.534 -1194.853)" fill="none" stroke="#001222" stroke-linecap="round" stroke-width="3"/>
  <circle id="Ellipse_192" data-name="Ellipse 192" cx="3" cy="3" r="3" transform="translate(15 15)" fill="#001222"/>
  <circle id="Ellipse_193" data-name="Ellipse 193" cx="3" cy="3" r="3" transform="translate(37 15)" fill="#001222"/>
  <circle id="Ellipse_194" data-name="Ellipse 194" cx="3" cy="3" r="3" transform="translate(15 37)" fill="#001222"/>
  <path id="모양_915" data-name="모양 915" d="M2235.994,4383.365a25.987,25.987,0,0,1-5.069-2.923,2.516,2.516,0,0,0-1.227-.446,2.631,2.631,0,0,0-1.234.446,26.208,26.208,0,0,1-5.076,2.923c-1.54.68-1.443,1.742-1.33,2.8l.665,6.208a4.418,4.418,0,0,0,2.014,2.949l3.563,1.819a2.524,2.524,0,0,0,2.791,0l3.559-1.819a4.414,4.414,0,0,0,2.012-2.949l.664-6.208C2237.438,4385.107,2237.534,4384.045,2235.994,4383.365Z" transform="translate(-2186.691 -4351.984)" fill="#48c771"/>
  <path id="모양_826" data-name="모양 826" d="M2233,4395.844l2.715,3.152,3.236-4.92" transform="translate(-2192.714 -4359.723)" fill="none" stroke="#fff" stroke-linecap="round" stroke-width="2"/>
</svg>
